<svg width="48" height="48" viewBox="0 0 48 48" fill="none" xmlns="http://www.w3.org/2000/svg">
<g clip-path="url(#clip0)">
<rect width="48" height="48" fill="white"/>
<rect x="-1" width="48" height="48" fill="#C4C4C4"/>
<rect width="48" height="48" fill="#FFFCFC"/>
<circle cx="24" cy="26" r="6" stroke="#FF498B" stroke-width="3" stroke-linejoin="round"/>
<mask id="path-4-inside-1" fill="white">
<path fill-rule="evenodd" clip-rule="evenodd" d="M20.386 8.5C19.5523 8.5 18.8061 9.01715 18.5133 9.79775L17.3125 13H8C3.58172 13 0 16.5817 0 21V32C0 36.4183 3.58172 40 8 40H40C44.4183 40 48 36.4183 48 32V21C48 16.5817 44.4183 13 40 13H30.6667L29.4431 9.78801C29.1476 9.0125 28.404 8.5 27.5741 8.5H20.386Z"/>
</mask>
<path d="M18.5133 9.79775L15.7044 8.74438L15.7044 8.74438L18.5133 9.79775ZM17.3125 13V16H19.3915L20.1215 14.0534L17.3125 13ZM30.6667 13L27.8632 14.068L28.5992 16H30.6667V13ZM29.4431 9.78801L32.2465 8.72002L32.2465 8.72002L29.4431 9.78801ZM21.3223 10.8511C21.176 11.2414 20.8028 11.5 20.386 11.5V5.5C18.3018 5.5 16.4362 6.79286 15.7044 8.74438L21.3223 10.8511ZM20.1215 14.0534L21.3223 10.8511L15.7044 8.74438L14.5035 11.9466L20.1215 14.0534ZM8 16H17.3125V10H8V16ZM3 21C3 18.2386 5.23858 16 8 16V10C1.92487 10 -3 14.9249 -3 21H3ZM3 32V21H-3V32H3ZM8 37C5.23858 37 3 34.7614 3 32H-3C-3 38.0751 1.92487 43 8 43V37ZM40 37H8V43H40V37ZM45 32C45 34.7614 42.7614 37 40 37V43C46.0751 43 51 38.0751 51 32H45ZM45 21V32H51V21H45ZM40 16C42.7614 16 45 18.2386 45 21H51C51 14.9249 46.0751 10 40 10V16ZM30.6667 16H40V10H30.6667V16ZM26.6396 10.856L27.8632 14.068L33.4701 11.932L32.2465 8.72002L26.6396 10.856ZM27.5741 11.5C27.1591 11.5 26.7873 11.2437 26.6396 10.856L32.2465 8.72002C31.5079 6.78125 29.6488 5.5 27.5741 5.5V11.5ZM20.386 11.5H27.5741V5.5H20.386V11.5Z" fill="#152C5B" mask="url(#path-4-inside-1)"/>
<path d="M34 20H42" stroke="#152C5B" stroke-width="2" stroke-linejoin="round"/>
</g>
<defs>
<clipPath id="clip0">
<rect width="48" height="48" fill="white"/>
</clipPath>
</defs>
</svg>
