<svg width="48" height="48" viewBox="0 0 48 48" fill="none" xmlns="http://www.w3.org/2000/svg">
<g clip-path="url(#clip0)">
<rect width="48" height="48" fill="white"/>
<rect x="-1" y="-0.00515747" width="47.0204" height="47.5052" fill="#C4C4C4"/>
<rect x="-0.0203857" y="-0.00515747" width="47.0204" height="47.5052" fill="#FFFCFC"/>
<path d="M23.2857 39.3675C23.2857 42.5169 18.4613 45.07 12.5102 45.07C6.55904 45.07 1.73468 42.5169 1.73468 39.3675C1.73468 36.218 6.55904 33.6649 12.5102 33.6649C18.4613 33.6649 23.2857 36.218 23.2857 39.3675Z" stroke="#152C5B" stroke-width="3" stroke-linejoin="round"/>
<path d="M23.7449 13.1289C23.7449 14.2128 23.4229 16.4216 22.7821 19.218C22.1501 21.9756 21.2351 25.1879 20.1081 28.2367C18.9752 31.3012 17.6556 34.1246 16.2377 36.1532C14.7509 38.2803 13.4689 39.0928 12.5102 39.0928C11.5515 39.0928 10.2695 38.2803 8.78274 36.1532C7.36484 34.1246 6.04523 31.3012 4.91236 28.2367C3.78531 25.1879 2.87036 21.9756 2.23836 19.218C1.59747 16.4216 1.27551 14.2128 1.27551 13.1289C1.27551 11.1154 2.44789 8.5704 4.55927 6.48587C6.6452 4.42646 9.4676 3 12.5102 3C15.5528 3 18.3752 4.42646 20.4611 6.48587C22.5725 8.5704 23.7449 11.1154 23.7449 13.1289Z" fill="white" stroke="#152C5B" stroke-width="3"/>
<ellipse cx="12.5102" cy="14.8608" rx="3.91837" ry="3.95876" stroke="#FF498B" stroke-width="2" stroke-linejoin="round"/>
</g>
<defs>
<clipPath id="clip0">
<rect width="48" height="48" fill="white"/>
</clipPath>
</defs>
</svg>
